<svg xmlns="http://www.w3.org/2000/svg" width="3217.391" height="845.109" viewBox="0 0 3217.391 845.109">
  <rect xmlns="http://www.w3.org/2000/svg" width="75" height="77" rx="10" ry="10" transform="matrix(8.15218 0 0 8.15218 108.696 108.696)" fill="#fff"/>
  <path d="M598.452 340.982c7.268 16.402 10.94 34.1 10.136 51.58-.663 17.481-5.802 34.48-13.941 49.632-8.187 15.171-19.364 28.592-31.895 39.835-5.518 4.79-11.149 9.228-17.007 13.165-5.811 3.786-11.395 7.382-17.348 10.534-41.047 22.43-87.139 30.949-131.053 26.065l-14.651 84.696c-2.224 11.623-50.634 11.339-54.06-.473L288.57 357.64c-24.55 7.25-43.867 10.78-44.577 5.736l-.786-3.076-14.944-59.313 38.321-28.213c27.636-20.349 58.641-33.23 89.533-39.58a235.047 235.047 0 0 1 91.899-.776c29.803 5.621 58.546 16.818 84.11 33.693 6.255 4.467 12.492 8.915 18.37 13.827l8.575 7.732c2.905 2.594 5.489 5.111 8.394 8.187 12.957 13.468 23.746 28.677 30.996 45.126zm-91.984 67.046c2.224-8.897-.824-17.992-6.701-23.283a31.545 31.545 0 0 0-9.086-6.029c-2.375-1.57-5.83-3.085-8.49-4.722-2.98-1.448-6.151-2.631-9.123-3.975a105.225 105.225 0 0 0-39.968-5.84c-2.31.095-4.6.37-6.88.625l-18.75 108.423c29.018-4.372 56.219-16.704 76.785-34.516 3.293-2.669 6.35-5.811 9.218-8.641 2.726-2.83 5.11-5.849 7.307-8.802 2.763-4.353 4.675-8.773 5.688-13.24z"/>
  <path d="M1097.834 231.198c76.773 0 124.528 56.98 124.528 126.696 0 71.355-47.755 124.806-124.528 124.806h-81.663v140.531h-81.399v-392.06h163.062zm-13.571 183.397c40.699 0 59.687-22.517 59.687-57.785 0-33.92-18.988-57.507-59.687-57.507h-68.092v115.292h68.092zm355.681-70.258h78.134V623.23h-74.064l-1.903-33.643c-19.53 24.684-50.464 39.074-88.72 39.074-67.007 0-103.9-35.004-103.9-96.58V344.308h78.398v170.937c0 36.893 23.058 50.45 50.186 50.45 32.296 0 61.591-16.28 61.869-67.55v-153.81zm133.738 278.894V206.515h78.954V623.23h-78.954zm232.778 5.417c-62.66 0-111.236-24.683-121.264-77.578l65.382-18.447c8.404 29.837 29.573 41.505 55.882 41.505 19.266 0 40.144-5.973 39.616-27.948-.278-29.031-44.228-31.462-88.441-47.2-33.38-11.668-65.383-29.587-65.383-76.51 0-57.242 47.478-83.565 109.319-83.565 54.27 0 99.58 20.628 110.43 73.8l-60.508 13.558c-8.404-26.045-26.85-35.268-49.645-35.268-20.613 0-38.254 7.334-38.254 24.697 0 21.975 32.281 26.309 67.286 35.81 43.144 11.668 90.344 30.379 90.344 90.066 0 64.036-54.535 87.094-114.764 87.094zm408.035-148.934-.806 18.724h-206.733c3.25 46.395 34.17 68.634 71.342 68.634 27.948 0 49.659-13.016 60.23-37.713l71.633 10.584c-18.447 56.438-68.647 88.72-131.307 88.72-90.08 0-148.949-53.174-148.949-144.88S1990.4 338.35 2076.41 338.35c78.94 0 137.808 43.686 138.086 141.364zm-137.544-85.997c-35.532 0-60.23 16.544-67.814 53.715h128.043c-4.07-35.532-28.198-53.715-60.23-53.715zm345.096-162.519c76.774 0 124.53 56.98 124.53 126.696 0 71.355-47.756 124.806-124.53 124.806h-81.662v140.531h-81.399v-392.06h163.061zm-13.57 183.397c40.699 0 59.687-22.517 59.687-57.785 0-33.92-18.988-57.507-59.688-57.507h-68.091v115.292h68.091zm300.869 214.053c-88.705 0-152.727-53.978-152.727-145.128 0-90.622 63.48-144.6 152.74-144.6 89.79 0 153.019 53.978 153.019 144.6 0 91.15-63.48 145.142-153.018 145.142zm-.806-62.118c45.297 0 76.231-33.101 76.231-83.024s-30.934-83.01-76.23-83.01c-43.687 0-74.343 33.101-74.343 83.01s30.656 83.024 74.342 83.024zm186.647 56.701V206.515h78.954V623.23h-78.954zm134.572 0V206.515h78.94V623.23h-78.94z" fill="#fff"/>
</svg>
